<?xml version="1.0" encoding="UTF-8" standalone="no"?>
<!DOCTYPE svg PUBLIC "-//W3C//DTD SVG 1.1//EN" "http://www.w3.org/Graphics/SVG/1.1/DTD/svg11.dtd">
<svg width="100%" height="100%" viewBox="0 0 48 48" version="1.1" xmlns="http://www.w3.org/2000/svg" xmlns:xlink="http://www.w3.org/1999/xlink" xml:space="preserve" xmlns:serif="http://www.serif.com/" style="fill-rule:evenodd;clip-rule:evenodd;stroke-linejoin:round;stroke-miterlimit:2;">
    <g transform="matrix(0.933333,0,0,0.933333,-5.6,-4.66667)">
        <path d="M28.5,5C40.918,5 51,15.082 51,27.5C51,39.918 40.918,50 28.5,50C16.082,50 6,39.918 6,27.5C6,15.082 16.082,5 28.5,5ZM28.5,9.286C38.553,9.286 46.714,17.447 46.714,27.5C46.714,37.553 38.553,45.714 28.5,45.714C18.447,45.714 10.286,37.553 10.286,27.5C10.286,17.447 18.447,9.286 28.5,9.286Z" style="fill:rgb(59,34,19);"/>
    </g>
    <g transform="matrix(0.332676,0.332676,-0.707107,0.707107,64.2771,-9.26197)">
        <path d="M58,52C58,49.791 54.194,48 49.498,48L19,48L19,56L49.498,56C54.194,56 58,54.209 58,52L58,52Z" style="fill:rgb(59,34,19);"/>
    </g>
    <g transform="matrix(1.11111,0,0,1.11111,-6.77778,-6.77778)">
        <path d="M27,23L27,17.953C27,16.874 26.126,16 25.047,16C25.016,16 24.984,16 24.953,16C23.874,16 23,16.874 23,17.953C23,20.024 23,23 23,23L17.953,23C16.874,23 16,23.874 16,24.953C16,24.984 16,25.016 16,25.047C16,26.126 16.874,27 17.953,27C20.024,27 23,27 23,27L23,32.047C23,33.126 23.874,34 24.953,34C24.984,34 25.016,34 25.047,34C26.126,34 27,33.126 27,32.047C27,29.976 27,27 27,27L32.047,27C33.126,27 34,26.126 34,25.047C34,25.016 34,24.984 34,24.953C34,23.874 33.126,23 32.047,23C29.976,23 27,23 27,23Z" style="fill:rgb(59,34,19);"/>
    </g>
</svg>
